<mxfile host="app.diagrams.net" modified="2020-09-18T02:49:20.448Z" agent="5.0 (Macintosh; Intel Mac OS X 10_14_6) AppleWebKit/537.36 (KHTML, like Gecko) Chrome/84.0.4147.105 Safari/537.36" etag="VJGkYZeQoYuQxnjvskCt" version="13.7.3" type="github">
  <diagram id="kgpKYQtTHZ0yAKxKKP6v" name="Page-1">
    <mxGraphModel dx="1666" dy="771" grid="1" gridSize="10" guides="1" tooltips="1" connect="1" arrows="1" fold="1" page="1" pageScale="1" pageWidth="850" pageHeight="1100" math="0" shadow="0">
      <root>
        <mxCell id="0" />
        <mxCell id="1" parent="0" />
        <mxCell id="3nuBFxr9cyL0pnOWT2aG-1" value="k12" style="shape=umlLifeline;perimeter=lifelinePerimeter;container=1;collapsible=0;recursiveResize=0;rounded=0;shadow=0;strokeWidth=1;fontStyle=1" parent="1" vertex="1">
          <mxGeometry x="160" y="230" width="100" height="300" as="geometry" />
        </mxCell>
        <mxCell id="3nuBFxr9cyL0pnOWT2aG-2" value="" style="points=[];perimeter=orthogonalPerimeter;rounded=0;shadow=0;strokeWidth=1;" parent="3nuBFxr9cyL0pnOWT2aG-1" vertex="1">
          <mxGeometry x="45" y="70" width="10" height="190" as="geometry" />
        </mxCell>
        <mxCell id="3nuBFxr9cyL0pnOWT2aG-5" value="双师" style="shape=umlLifeline;perimeter=lifelinePerimeter;container=1;collapsible=0;recursiveResize=0;rounded=0;shadow=0;strokeWidth=1;fontStyle=1" parent="1" vertex="1">
          <mxGeometry x="310" y="230" width="100" height="300" as="geometry" />
        </mxCell>
        <mxCell id="3nuBFxr9cyL0pnOWT2aG-6" value="" style="points=[];perimeter=orthogonalPerimeter;rounded=0;shadow=0;strokeWidth=1;" parent="3nuBFxr9cyL0pnOWT2aG-5" vertex="1">
          <mxGeometry x="45" y="80" width="10" height="160" as="geometry" />
        </mxCell>
        <mxCell id="cUYSskZlXbwDV3z6KKFb-1" value="教师端" style="shape=umlLifeline;perimeter=lifelinePerimeter;container=1;collapsible=0;recursiveResize=0;rounded=0;shadow=0;strokeWidth=1;fontStyle=1" vertex="1" parent="1">
          <mxGeometry x="465" y="230" width="100" height="300" as="geometry" />
        </mxCell>
        <mxCell id="cUYSskZlXbwDV3z6KKFb-2" value="" style="points=[];perimeter=orthogonalPerimeter;rounded=0;shadow=0;strokeWidth=1;" vertex="1" parent="cUYSskZlXbwDV3z6KKFb-1">
          <mxGeometry x="45" y="80" width="10" height="160" as="geometry" />
        </mxCell>
        <mxCell id="cUYSskZlXbwDV3z6KKFb-20" value="查询dubbo文件列表接口(根据liveId/type)" style="verticalAlign=bottom;endArrow=block;shadow=0;strokeWidth=1;" edge="1" parent="cUYSskZlXbwDV3z6KKFb-1">
          <mxGeometry relative="1" as="geometry">
            <mxPoint x="-95" y="180" as="sourcePoint" />
            <mxPoint x="225" y="180" as="targetPoint" />
          </mxGeometry>
        </mxCell>
        <mxCell id="cUYSskZlXbwDV3z6KKFb-3" value="中台" style="shape=umlLifeline;perimeter=lifelinePerimeter;container=1;collapsible=0;recursiveResize=0;rounded=0;shadow=0;strokeWidth=1;fontStyle=1" vertex="1" parent="1">
          <mxGeometry x="645" y="230" width="100" height="300" as="geometry" />
        </mxCell>
        <mxCell id="cUYSskZlXbwDV3z6KKFb-4" value="" style="points=[];perimeter=orthogonalPerimeter;rounded=0;shadow=0;strokeWidth=1;" vertex="1" parent="cUYSskZlXbwDV3z6KKFb-3">
          <mxGeometry x="45" y="80" width="10" height="160" as="geometry" />
        </mxCell>
        <mxCell id="cUYSskZlXbwDV3z6KKFb-5" value="上传（区分上传文件用途以及附属信息）" style="verticalAlign=bottom;endArrow=block;shadow=0;strokeWidth=1;" edge="1" parent="1">
          <mxGeometry relative="1" as="geometry">
            <mxPoint x="372" y="330" as="sourcePoint" />
            <mxPoint x="692" y="330" as="targetPoint" />
          </mxGeometry>
        </mxCell>
        <mxCell id="cUYSskZlXbwDV3z6KKFb-7" value="上传（同上）" style="verticalAlign=bottom;endArrow=block;shadow=0;strokeWidth=1;entryX=-0.1;entryY=0.25;entryDx=0;entryDy=0;entryPerimeter=0;" edge="1" parent="1" target="cUYSskZlXbwDV3z6KKFb-4">
          <mxGeometry x="-0.0625" relative="1" as="geometry">
            <mxPoint x="520" y="350.5" as="sourcePoint" />
            <mxPoint x="680" y="350" as="targetPoint" />
            <mxPoint as="offset" />
          </mxGeometry>
        </mxCell>
        <mxCell id="cUYSskZlXbwDV3z6KKFb-8" value="消息" style="shape=umlLifeline;perimeter=lifelinePerimeter;container=1;collapsible=0;recursiveResize=0;rounded=0;shadow=0;strokeWidth=1;fontStyle=1" vertex="1" parent="1">
          <mxGeometry x="920" y="230" width="100" height="300" as="geometry" />
        </mxCell>
        <mxCell id="cUYSskZlXbwDV3z6KKFb-9" value="" style="points=[];perimeter=orthogonalPerimeter;rounded=0;shadow=0;strokeWidth=1;" vertex="1" parent="cUYSskZlXbwDV3z6KKFb-8">
          <mxGeometry x="45" y="80" width="10" height="160" as="geometry" />
        </mxCell>
        <mxCell id="cUYSskZlXbwDV3z6KKFb-10" value="统一发上传(包括删除)消息、以及区分上传文件用途以及附属信息）" style="verticalAlign=bottom;endArrow=block;shadow=0;strokeWidth=1;exitX=1.3;exitY=0.488;exitDx=0;exitDy=0;exitPerimeter=0;" edge="1" parent="1" source="cUYSskZlXbwDV3z6KKFb-4" target="cUYSskZlXbwDV3z6KKFb-8">
          <mxGeometry relative="1" as="geometry">
            <mxPoint x="705" y="390" as="sourcePoint" />
            <mxPoint x="825" y="390" as="targetPoint" />
          </mxGeometry>
        </mxCell>
        <mxCell id="cUYSskZlXbwDV3z6KKFb-11" value="消费" style="html=1;verticalAlign=bottom;endArrow=open;dashed=1;endSize=8;" edge="1" parent="1" source="cUYSskZlXbwDV3z6KKFb-8">
          <mxGeometry relative="1" as="geometry">
            <mxPoint x="840" y="430" as="sourcePoint" />
            <mxPoint x="220" y="430" as="targetPoint" />
          </mxGeometry>
        </mxCell>
        <mxCell id="cUYSskZlXbwDV3z6KKFb-15" value="查询dubbo文件列表接口(根据liveId/type)" style="verticalAlign=bottom;endArrow=block;shadow=0;strokeWidth=1;" edge="1" parent="1">
          <mxGeometry relative="1" as="geometry">
            <mxPoint x="220" y="460" as="sourcePoint" />
            <mxPoint x="690" y="460" as="targetPoint" />
          </mxGeometry>
        </mxCell>
        <mxCell id="cUYSskZlXbwDV3z6KKFb-16" value="文件存储服务" style="shape=umlLifeline;perimeter=lifelinePerimeter;container=1;collapsible=0;recursiveResize=0;rounded=0;shadow=0;strokeWidth=1;fontStyle=1" vertex="1" parent="1">
          <mxGeometry x="780" y="230" width="100" height="300" as="geometry" />
        </mxCell>
        <mxCell id="cUYSskZlXbwDV3z6KKFb-17" value="" style="points=[];perimeter=orthogonalPerimeter;rounded=0;shadow=0;strokeWidth=1;" vertex="1" parent="cUYSskZlXbwDV3z6KKFb-16">
          <mxGeometry x="45" y="80" width="10" height="160" as="geometry" />
        </mxCell>
        <mxCell id="cUYSskZlXbwDV3z6KKFb-18" value="上传" style="verticalAlign=bottom;endArrow=block;shadow=0;strokeWidth=1;" edge="1" parent="1">
          <mxGeometry x="-0.0625" relative="1" as="geometry">
            <mxPoint x="700" y="360.5" as="sourcePoint" />
            <mxPoint x="825" y="360" as="targetPoint" />
            <mxPoint as="offset" />
          </mxGeometry>
        </mxCell>
        <mxCell id="cUYSskZlXbwDV3z6KKFb-19" value="k12 DB库历史数据清洗到文件存储服务(后面统一走中台查询)" style="text;html=1;align=center;verticalAlign=middle;resizable=0;points=[];autosize=1;" vertex="1" parent="1">
          <mxGeometry x="510" y="100" width="340" height="20" as="geometry" />
        </mxCell>
        <mxCell id="cUYSskZlXbwDV3z6KKFb-23" value="C端用户" style="shape=umlActor;verticalLabelPosition=bottom;verticalAlign=top;html=1;" vertex="1" parent="1">
          <mxGeometry x="50" y="330" width="30" height="60" as="geometry" />
        </mxCell>
      </root>
    </mxGraphModel>
  </diagram>
</mxfile>
